<svg id="visual" viewBox="0 0 900 675" width="900" height="675" xmlns="http://www.w3.org/2000/svg" xmlns:xlink="http://www.w3.org/1999/xlink" version="1.1"><path d="M0 418L25 397.3C50 376.7 100 335.3 150 311.8C200 288.3 250 282.7 300 284.3C350 286 400 295 450 319.3C500 343.7 550 383.3 600 386.3C650 389.3 700 355.7 750 352.5C800 349.3 850 376.7 875 390.3L900 404L900 676L875 676C850 676 800 676 750 676C700 676 650 676 600 676C550 676 500 676 450 676C400 676 350 676 300 676C250 676 200 676 150 676C100 676 50 676 25 676L0 676Z" fill="#c62368"></path><path d="M0 345L25 360.7C50 376.3 100 407.7 150 400.2C200 392.7 250 346.3 300 326.3C350 306.3 400 312.7 450 333.7C500 354.7 550 390.3 600 406.3C650 422.3 700 418.7 750 410.8C800 403 850 391 875 385L900 379L900 676L875 676C850 676 800 676 750 676C700 676 650 676 600 676C550 676 500 676 450 676C400 676 350 676 300 676C250 676 200 676 150 676C100 676 50 676 25 676L0 676Z" fill="#c53f8e"></path><path d="M0 471L25 463.7C50 456.3 100 441.7 150 429C200 416.3 250 405.7 300 407.8C350 410 400 425 450 438C500 451 550 462 600 457.2C650 452.3 700 431.7 750 417.2C800 402.7 850 394.3 875 390.2L900 386L900 676L875 676C850 676 800 676 750 676C700 676 650 676 600 676C550 676 500 676 450 676C400 676 350 676 300 676C250 676 200 676 150 676C100 676 50 676 25 676L0 676Z" fill="#bc5ab1"></path><path d="M0 378L25 386.3C50 394.7 100 411.3 150 412.8C200 414.3 250 400.7 300 403.3C350 406 400 425 450 429.8C500 434.7 550 425.3 600 431.2C650 437 700 458 750 471C800 484 850 489 875 491.5L900 494L900 676L875 676C850 676 800 676 750 676C700 676 650 676 600 676C550 676 500 676 450 676C400 676 350 676 300 676C250 676 200 676 150 676C100 676 50 676 25 676L0 676Z" fill="#ac73ce"></path><path d="M0 438L25 449.8C50 461.7 100 485.3 150 496.8C200 508.3 250 507.7 300 501.8C350 496 400 485 450 478.2C500 471.3 550 468.7 600 473C650 477.3 700 488.7 750 495.7C800 502.7 850 505.3 875 506.7L900 508L900 676L875 676C850 676 800 676 750 676C700 676 650 676 600 676C550 676 500 676 450 676C400 676 350 676 300 676C250 676 200 676 150 676C100 676 50 676 25 676L0 676Z" fill="#9589e5"></path><path d="M0 498L25 500.3C50 502.7 100 507.3 150 502.2C200 497 250 482 300 481.7C350 481.3 400 495.7 450 502.3C500 509 550 508 600 514C650 520 700 533 750 530C800 527 850 508 875 498.5L900 489L900 676L875 676C850 676 800 676 750 676C700 676 650 676 600 676C550 676 500 676 450 676C400 676 350 676 300 676C250 676 200 676 150 676C100 676 50 676 25 676L0 676Z" fill="#7c9ef5"></path><path d="M0 513L25 522.8C50 532.7 100 552.3 150 554.2C200 556 250 540 300 529.7C350 519.3 400 514.7 450 516C500 517.3 550 524.7 600 523C650 521.3 700 510.7 750 508.3C800 506 850 512 875 515L900 518L900 676L875 676C850 676 800 676 750 676C700 676 650 676 600 676C550 676 500 676 450 676C400 676 350 676 300 676C250 676 200 676 150 676C100 676 50 676 25 676L0 676Z" fill="#64b1fe"></path><path d="M0 602L25 590.7C50 579.3 100 556.7 150 551.2C200 545.7 250 557.3 300 564.5C350 571.7 400 574.3 450 575.5C500 576.7 550 576.3 600 571C650 565.7 700 555.3 750 557.3C800 559.3 850 573.7 875 580.8L900 588L900 676L875 676C850 676 800 676 750 676C700 676 650 676 600 676C550 676 500 676 450 676C400 676 350 676 300 676C250 676 200 676 150 676C100 676 50 676 25 676L0 676Z" fill="#55c2ff"></path><path d="M0 571L25 577.5C50 584 100 597 150 600.5C200 604 250 598 300 592C350 586 400 580 450 576C500 572 550 570 600 568.8C650 567.7 700 567.3 750 577.2C800 587 850 607 875 617L900 627L900 676L875 676C850 676 800 676 750 676C700 676 650 676 600 676C550 676 500 676 450 676C400 676 350 676 300 676C250 676 200 676 150 676C100 676 50 676 25 676L0 676Z" fill="#56d2fe"></path><path d="M0 657L25 650.7C50 644.3 100 631.7 150 629.2C200 626.7 250 634.3 300 633C350 631.7 400 621.3 450 621.8C500 622.3 550 633.7 600 634.2C650 634.7 700 624.3 750 621.3C800 618.3 850 622.7 875 624.8L900 627L900 676L875 676C850 676 800 676 750 676C700 676 650 676 600 676C550 676 500 676 450 676C400 676 350 676 300 676C250 676 200 676 150 676C100 676 50 676 25 676L0 676Z" fill="#69e0fa"></path></svg>