<svg id="visual" viewBox="0 0 900 675" width="900" height="675" xmlns="http://www.w3.org/2000/svg" xmlns:xlink="http://www.w3.org/1999/xlink" version="1.1"><path d="M0 491L25 476.2C50 461.3 100 431.7 150 414.8C200 398 250 394 300 395.3C350 396.7 400 403.3 450 420.8C500 438.3 550 466.7 600 468.8C650 471 700 447 750 444.7C800 442.3 850 461.7 875 471.3L900 481L900 676L875 676C850 676 800 676 750 676C700 676 650 676 600 676C550 676 500 676 450 676C400 676 350 676 300 676C250 676 200 676 150 676C100 676 50 676 25 676L0 676Z" fill="#c62368"></path><path d="M0 439L25 450.2C50 461.3 100 483.7 150 478.3C200 473 250 440 300 425.7C350 411.3 400 415.7 450 430.7C500 445.7 550 471.3 600 482.8C650 494.3 700 491.7 750 486C800 480.3 850 471.7 875 467.3L900 463L900 676L875 676C850 676 800 676 750 676C700 676 650 676 600 676C550 676 500 676 450 676C400 676 350 676 300 676C250 676 200 676 150 676C100 676 50 676 25 676L0 676Z" fill="#c53f8e"></path><path d="M0 529L25 523.8C50 518.7 100 508.3 150 499.2C200 490 250 482 300 483.5C350 485 400 496 450 505.5C500 515 550 523 600 519.5C650 516 700 501 750 490.5C800 480 850 474 875 471L900 468L900 676L875 676C850 676 800 676 750 676C700 676 650 676 600 676C550 676 500 676 450 676C400 676 350 676 300 676C250 676 200 676 150 676C100 676 50 676 25 676L0 676Z" fill="#bc5ab1"></path><path d="M0 463L25 468.8C50 474.7 100 486.3 150 487.3C200 488.3 250 478.7 300 480.7C350 482.7 400 496.3 450 499.8C500 503.3 550 496.7 600 500.8C650 505 700 520 750 529.2C800 538.3 850 541.7 875 543.3L900 545L900 676L875 676C850 676 800 676 750 676C700 676 650 676 600 676C550 676 500 676 450 676C400 676 350 676 300 676C250 676 200 676 150 676C100 676 50 676 25 676L0 676Z" fill="#ac73ce"></path><path d="M0 505L25 513.5C50 522 100 539 150 547.3C200 555.7 250 555.3 300 551.2C350 547 400 539 450 534.2C500 529.3 550 527.7 600 530.8C650 534 700 542 750 547C800 552 850 554 875 555L900 556L900 676L875 676C850 676 800 676 750 676C700 676 650 676 600 676C550 676 500 676 450 676C400 676 350 676 300 676C250 676 200 676 150 676C100 676 50 676 25 676L0 676Z" fill="#9589e5"></path><path d="M0 548L25 549.7C50 551.3 100 554.7 150 551C200 547.3 250 536.7 300 536.5C350 536.3 400 546.7 450 551.5C500 556.3 550 555.7 600 560C650 564.3 700 573.7 750 571.5C800 569.3 850 555.7 875 548.8L900 542L900 676L875 676C850 676 800 676 750 676C700 676 650 676 600 676C550 676 500 676 450 676C400 676 350 676 300 676C250 676 200 676 150 676C100 676 50 676 25 676L0 676Z" fill="#7c9ef5"></path><path d="M0 559L25 566C50 573 100 587 150 588.3C200 589.7 250 578.3 300 571C350 563.7 400 560.3 450 561.2C500 562 550 567 600 565.7C650 564.3 700 556.7 750 555C800 553.3 850 557.7 875 559.8L900 562L900 676L875 676C850 676 800 676 750 676C700 676 650 676 600 676C550 676 500 676 450 676C400 676 350 676 300 676C250 676 200 676 150 676C100 676 50 676 25 676L0 676Z" fill="#64b1fe"></path><path d="M0 623L25 614.8C50 606.7 100 590.3 150 586.3C200 582.3 250 590.7 300 595.7C350 600.7 400 602.3 450 603.2C500 604 550 604 600 600.3C650 596.7 700 589.3 750 590.8C800 592.3 850 602.7 875 607.8L900 613L900 676L875 676C850 676 800 676 750 676C700 676 650 676 600 676C550 676 500 676 450 676C400 676 350 676 300 676C250 676 200 676 150 676C100 676 50 676 25 676L0 676Z" fill="#55c2ff"></path><path d="M0 600L25 604.7C50 609.3 100 618.7 150 621.2C200 623.7 250 619.3 300 615.2C350 611 400 607 450 604.3C500 601.7 550 600.3 600 599.3C650 598.3 700 597.7 750 604.7C800 611.7 850 626.3 875 633.7L900 641L900 676L875 676C850 676 800 676 750 676C700 676 650 676 600 676C550 676 500 676 450 676C400 676 350 676 300 676C250 676 200 676 150 676C100 676 50 676 25 676L0 676Z" fill="#56d2fe"></path><path d="M0 662L25 657.5C50 653 100 644 150 642.2C200 640.3 250 645.7 300 644.7C350 643.7 400 636.3 450 636.8C500 637.3 550 645.7 600 646C650 646.3 700 638.7 750 636.3C800 634 850 637 875 638.5L900 640L900 676L875 676C850 676 800 676 750 676C700 676 650 676 600 676C550 676 500 676 450 676C400 676 350 676 300 676C250 676 200 676 150 676C100 676 50 676 25 676L0 676Z" fill="#69e0fa"></path></svg>