<svg id="visual" viewBox="0 0 900 600" width="900" height="600" xmlns="http://www.w3.org/2000/svg" xmlns:xlink="http://www.w3.org/1999/xlink" version="1.1"><path d="M0 440L21.5 431.2C43 422.3 86 404.7 128.8 378C171.7 351.3 214.3 315.7 257.2 290.5C300 265.3 343 250.7 385.8 261C428.7 271.3 471.3 306.7 514.2 330.7C557 354.7 600 367.3 642.8 373C685.7 378.7 728.3 377.3 771.2 368.7C814 360 857 344 878.5 336L900 328L900 0L878.5 0C857 0 814 0 771.2 0C728.3 0 685.7 0 642.8 0C600 0 557 0 514.2 0C471.3 0 428.7 0 385.8 0C343 0 300 0 257.2 0C214.3 0 171.7 0 128.8 0C86 0 43 0 21.5 0L0 0Z" fill="#ff7c73"></path><path d="M0 170L21.5 188.7C43 207.3 86 244.7 128.8 280.7C171.7 316.7 214.3 351.3 257.2 362C300 372.7 343 359.3 385.8 330.3C428.7 301.3 471.3 256.7 514.2 254.5C557 252.3 600 292.7 642.8 280.7C685.7 268.7 728.3 204.3 771.2 212.5C814 220.7 857 301.3 878.5 341.7L900 382L900 0L878.5 0C857 0 814 0 771.2 0C728.3 0 685.7 0 642.8 0C600 0 557 0 514.2 0C471.3 0 428.7 0 385.8 0C343 0 300 0 257.2 0C214.3 0 171.7 0 128.8 0C86 0 43 0 21.5 0L0 0Z" fill="#ff80a2"></path><path d="M0 169L21.5 175.3C43 181.7 86 194.3 128.8 208.7C171.7 223 214.3 239 257.2 253.3C300 267.7 343 280.3 385.8 285.7C428.7 291 471.3 289 514.2 268C557 247 600 207 642.8 214.3C685.7 221.7 728.3 276.3 771.2 268.8C814 261.3 857 191.7 878.5 156.8L900 122L900 0L878.5 0C857 0 814 0 771.2 0C728.3 0 685.7 0 642.8 0C600 0 557 0 514.2 0C471.3 0 428.7 0 385.8 0C343 0 300 0 257.2 0C214.3 0 171.7 0 128.8 0C86 0 43 0 21.5 0L0 0Z" fill="#f78ece"></path><path d="M0 292L21.5 270.2C43 248.3 86 204.7 128.8 178.7C171.7 152.7 214.3 144.3 257.2 159.2C300 174 343 212 385.8 227.7C428.7 243.3 471.3 236.7 514.2 211.7C557 186.7 600 143.3 642.8 135.7C685.7 128 728.3 156 771.2 175.7C814 195.3 857 206.7 878.5 212.3L900 218L900 0L878.5 0C857 0 814 0 771.2 0C728.3 0 685.7 0 642.8 0C600 0 557 0 514.2 0C471.3 0 428.7 0 385.8 0C343 0 300 0 257.2 0C214.3 0 171.7 0 128.8 0C86 0 43 0 21.5 0L0 0Z" fill="#daa2f1"></path><path d="M0 164L21.5 171.8C43 179.7 86 195.3 128.8 182.2C171.7 169 214.3 127 257.2 130C300 133 343 181 385.8 205.3C428.7 229.7 471.3 230.3 514.2 203.8C557 177.3 600 123.7 642.8 117.7C685.7 111.7 728.3 153.3 771.2 161.7C814 170 857 145 878.5 132.5L900 120L900 0L878.5 0C857 0 814 0 771.2 0C728.3 0 685.7 0 642.8 0C600 0 557 0 514.2 0C471.3 0 428.7 0 385.8 0C343 0 300 0 257.2 0C214.3 0 171.7 0 128.8 0C86 0 43 0 21.5 0L0 0Z" fill="#b4b6ff"></path><path d="M0 74L21.5 73.7C43 73.3 86 72.7 128.8 81.7C171.7 90.7 214.3 109.3 257.2 117.2C300 125 343 122 385.8 122.5C428.7 123 471.3 127 514.2 117.2C557 107.3 600 83.7 642.8 86C685.7 88.3 728.3 116.7 771.2 129C814 141.3 857 137.7 878.5 135.8L900 134L900 0L878.5 0C857 0 814 0 771.2 0C728.3 0 685.7 0 642.8 0C600 0 557 0 514.2 0C471.3 0 428.7 0 385.8 0C343 0 300 0 257.2 0C214.3 0 171.7 0 128.8 0C86 0 43 0 21.5 0L0 0Z" fill="#8bc7ff"></path><path d="M0 59L21.5 63.8C43 68.7 86 78.3 128.8 79.3C171.7 80.3 214.3 72.7 257.2 63.2C300 53.7 343 42.3 385.8 44.7C428.7 47 471.3 63 514.2 81C557 99 600 119 642.8 127.2C685.7 135.3 728.3 131.7 771.2 124.8C814 118 857 108 878.5 103L900 98L900 0L878.5 0C857 0 814 0 771.2 0C728.3 0 685.7 0 642.8 0C600 0 557 0 514.2 0C471.3 0 428.7 0 385.8 0C343 0 300 0 257.2 0C214.3 0 171.7 0 128.8 0C86 0 43 0 21.5 0L0 0Z" fill="#6dd5ff"></path><path d="M0 22L21.5 24.8C43 27.7 86 33.3 128.8 34.2C171.7 35 214.3 31 257.2 29.5C300 28 343 29 385.8 26.2C428.7 23.3 471.3 16.7 514.2 13.3C557 10 600 10 642.8 17C685.7 24 728.3 38 771.2 50.7C814 63.3 857 74.7 878.5 80.3L900 86L900 0L878.5 0C857 0 814 0 771.2 0C728.3 0 685.7 0 642.8 0C600 0 557 0 514.2 0C471.3 0 428.7 0 385.8 0C343 0 300 0 257.2 0C214.3 0 171.7 0 128.8 0C86 0 43 0 21.5 0L0 0Z" fill="#69e0fa"></path></svg>