<svg id="visual" viewBox="0 0 900 600" width="900" height="600" xmlns="http://www.w3.org/2000/svg" xmlns:xlink="http://www.w3.org/1999/xlink" version="1.1"><path d="M0 223L21.5 216.8C43 210.7 86 198.3 128.8 187.5C171.7 176.7 214.3 167.3 257.2 165.3C300 163.3 343 168.7 385.8 167.3C428.7 166 471.3 158 514.2 157.8C557 157.7 600 165.3 642.8 170.3C685.7 175.3 728.3 177.7 771.2 190.3C814 203 857 226 878.5 237.5L900 249L900 0L878.5 0C857 0 814 0 771.2 0C728.3 0 685.7 0 642.8 0C600 0 557 0 514.2 0C471.3 0 428.7 0 385.8 0C343 0 300 0 257.2 0C214.3 0 171.7 0 128.8 0C86 0 43 0 21.5 0L0 0Z" fill="#c62368"></path><path d="M0 192L21.5 184.5C43 177 86 162 128.8 163.7C171.7 165.3 214.3 183.7 257.2 186.5C300 189.3 343 176.7 385.8 166.2C428.7 155.7 471.3 147.3 514.2 140C557 132.7 600 126.3 642.8 129.7C685.7 133 728.3 146 771.2 155.3C814 164.7 857 170.3 878.5 173.2L900 176L900 0L878.5 0C857 0 814 0 771.2 0C728.3 0 685.7 0 642.8 0C600 0 557 0 514.2 0C471.3 0 428.7 0 385.8 0C343 0 300 0 257.2 0C214.3 0 171.7 0 128.8 0C86 0 43 0 21.5 0L0 0Z" fill="#d63c6a"></path><path d="M0 95L21.5 101.7C43 108.3 86 121.7 128.8 131.5C171.7 141.3 214.3 147.7 257.2 146.2C300 144.7 343 135.3 385.8 125.8C428.7 116.3 471.3 106.7 514.2 103C557 99.3 600 101.7 642.8 101.7C685.7 101.7 728.3 99.3 771.2 107.2C814 115 857 133 878.5 142L900 151L900 0L878.5 0C857 0 814 0 771.2 0C728.3 0 685.7 0 642.8 0C600 0 557 0 514.2 0C471.3 0 428.7 0 385.8 0C343 0 300 0 257.2 0C214.3 0 171.7 0 128.8 0C86 0 43 0 21.5 0L0 0Z" fill="#e5526c"></path><path d="M0 61L21.5 60.7C43 60.3 86 59.7 128.8 65C171.7 70.3 214.3 81.7 257.2 81.8C300 82 343 71 385.8 67.5C428.7 64 471.3 68 514.2 77.5C557 87 600 102 642.8 100.5C685.7 99 728.3 81 771.2 75.2C814 69.3 857 75.7 878.5 78.8L900 82L900 0L878.5 0C857 0 814 0 771.2 0C728.3 0 685.7 0 642.8 0C600 0 557 0 514.2 0C471.3 0 428.7 0 385.8 0C343 0 300 0 257.2 0C214.3 0 171.7 0 128.8 0C86 0 43 0 21.5 0L0 0Z" fill="#f3676f"></path><path d="M0 24L21.5 29C43 34 86 44 128.8 51C171.7 58 214.3 62 257.2 57.7C300 53.3 343 40.7 385.8 40.2C428.7 39.7 471.3 51.3 514.2 56.2C557 61 600 59 642.8 59.7C685.7 60.3 728.3 63.7 771.2 63.7C814 63.7 857 60.3 878.5 58.7L900 57L900 0L878.5 0C857 0 814 0 771.2 0C728.3 0 685.7 0 642.8 0C600 0 557 0 514.2 0C471.3 0 428.7 0 385.8 0C343 0 300 0 257.2 0C214.3 0 171.7 0 128.8 0C86 0 43 0 21.5 0L0 0Z" fill="#ff7c73"></path></svg>